<svg width="433.333" height="433.333" viewBox="0 0 433.333 433.333" xmlns="http://www.w3.org/2000/svg">
  <path style="fill:#000" d="M129.34 395.34c-2.515-3.029-1.85-11.767 1.385-18.226 5.969-11.915 14.547-18.242 29.445-21.718 4.54-1.059 8.765-2.706 9.39-3.66s7.78-14.166 15.9-29.358c16.175-30.262 21.116-36.55 33.207-42.252 6.622-3.124 8.885-3.46 23.333-3.46 14.162 0 16.732.364 22.373 3.166 13.67 6.79 18.007 12.344 34.899 44.688 15.629 29.929 15.629 29.929 22.512 30.836 14.156 1.865 24.931 9.202 30.793 20.965C354.46 380.1 356 385.43 356 388.167c0 9.834 8.347 9.166-114.599 9.166-96.336 0-110.619-.254-112.062-1.992m123.692-59.64c15.87-9.538 8.579-34.345-10.098-34.362-14.59-.012-23.475 12.545-18.358 25.945 2.387 6.248 5.73 9.133 12.917 11.147 5.433 1.523 9.716.77 15.54-2.73m-84.777-54.033a41951 41951 0 0 1-16.765-31.11c-3.386-6.294-6.157-12.084-6.157-12.867s3.15-2.157 7-3.053c16.314-3.797 35.146-17.139 43-30.464 2.2-3.733 4.66-6.799 5.464-6.813 1.384-.025 41.87 59.606 41.87 61.669 0 .534-1.564.971-3.475.971-6.09 0-19.598 4.087-27.859 8.43-9.931 5.22-20.384 15.415-25.988 25.344-2.346 4.158-4.765 7.56-5.374 7.56-.61 0-5.882-8.85-11.716-19.667m-53.206-61.596c-9.004-3.292-16.815-8.734-24.809-17.283-21.363-22.847-19.84-59.233 3.422-81.739 19.18-18.557 46.859-22.366 70.203-9.66 8.05 4.38 19.985 16.477 23.975 24.296 15.435 30.256 3.072 67.072-27.487 81.857-8.282 4.007-10.22 4.393-23.686 4.717-11.744.283-16.052-.153-21.618-2.188m30.666-26.18c11.323-3.858 20.952-17.127 20.952-28.871 0-17.515-15.026-33.02-32-33.02-11.172 0-21.295 6.256-27.668 17.098-3.002 5.106-3.658 7.805-3.626 14.902.105 22.894 20.54 37.32 42.342 29.891m137.97-52.67c-4.206-.616-10.876-2.701-14.822-4.634-7.658-3.749-19.906-14.873-23.034-20.92-1.044-2.017-2.533-3.667-3.31-3.667-.776 0-9.077 5.4-18.447 12s-17.662 12-18.427 12-3.322-3.422-5.682-7.605-7.55-11.02-11.53-15.193c-7.238-7.588-7.238-7.588-3.502-10.223 2.054-1.45 13.036-7.9 24.402-14.334 31.334-17.738 29.978-16.67 35.076-27.633 10.053-21.62 32.291-33.268 55.573-29.108 20.057 3.585 37.595 17.082 32.33 24.88C331.063 58.637 317.393 68 315.94 68c-.602 0-4.132-1.888-7.844-4.195-19.96-12.408-43.049-.2-43.237 22.862-.101 12.357 7.712 22.54 20.043 26.125 8.15 2.37 14.28 1.59 23.388-2.974 9.226-4.623 11.733-4.164 18.862 3.458 3.4 3.635 6.182 7.19 6.182 7.898 0 4.401-14.824 15.864-24 18.558-7.267 2.133-17.277 2.714-25.648 1.488"/>
</svg>
