<svg width="466.667" height="468" viewBox="0 0 466.667 468" xmlns="http://www.w3.org/2000/svg"><path style="fill:#000" d="M80.202 382.688c-9.804-3.764-13.742-6.368-20.417-13.505-8.195-8.76-11.651-16.919-12.553-29.632-1.761-24.818 12.617-46.045 36.135-53.345 16.631-5.162 36.995-1.215 49.212 9.54 28.236 24.854 22.74 68.49-10.686 84.854-6.752 3.306-9.4 3.803-21.69 4.078-10.648.238-15.438-.238-20-1.99m32.682-28.887c5.351-4.082 9.909-12.53 9.956-18.456.077-9.74-7.746-19.995-17.453-22.877-20.598-6.117-38.074 16.126-27.22 34.646 6.795 11.595 23.95 14.9 34.717 6.687m105.985 30.075c-11.471-3.753-23.633-13.167-29.673-22.968-10.243-16.624-7.098-44.252 6.847-60.134 22.169-25.25 64.292-21.566 82.918 7.251 12.823 19.841 9.325 46.648-8.235 63.099-11.294 10.58-17.841 13.145-34.524 13.524-7.7.175-15.5-.173-17.333-.772m25.73-27.29c13.548-5.66 18.41-23.436 9.578-35.016-6.458-8.467-14.381-11.618-23.948-9.525-17.874 3.91-24.804 24.5-12.978 38.554 6.223 7.395 17.874 9.946 27.348 5.988m104.793 25.403c-9.26-3.9-14.019-7.243-20.468-14.382-7.057-7.811-10.208-15.774-11.039-27.893-2.752-40.153 37.188-67.918 73.354-50.994 32.3 15.115 39.989 56.917 15.07 81.937-3.433 3.447-9.662 7.942-13.841 9.988-6.599 3.23-9.442 3.77-21.6 4.106-12.244.338-14.936-.008-21.476-2.762m30.248-26.13c22.331-10.142 14.86-44.138-9.701-44.138-8.044 0-12.688 1.95-17.985 7.548-13.986 14.782-3.514 38.95 16.915 39.038 2.933.012 7.78-1.089 10.771-2.447m-217.595-51.77c-11.156-19.325-27.909-31.576-49.082-35.893-10.628-2.167-13.966-2.002-35.177 1.74l-4.415.779.415-25.47c.416-25.47.416-25.47 4.108-29.163 3.595-3.597 4.172-3.711 22-4.36l18.308-.667.37-19c.24-12.355.868-19 1.794-19 .784 0 3.253 1.302 5.487 2.893s7.427 4.257 11.54 5.926l7.476 3.034.667 13.073.666 13.074 77.256.344c42.49.19 77.703-.11 78.25-.667.547-.556 1.13-8.382 1.293-17.392.299-16.38.299-16.38-3.835-20.666-11.146-11.557-8.956-29.207 4.828-38.897 4.876-3.428 7.094-4.081 14.34-4.22 9.253-.179 10.567-.836 26.004-13.008 7.296-5.753 7.486-6.073 8.186-13.789 1.198-13.214 9.178-25.6 20.13-31.243 2.825-1.455 9.171-2.977 14.162-3.395 13.466-1.13 19.578 2.306 28.918 16.254 3.924 5.86 7.135 11.41 7.135 12.334 0 3.724-5.265 7.011-11.23 7.011-5.5 0-6.32-.494-12.162-7.333-6.842-8.008-10.578-9.141-17.81-5.401-5.425 2.805-8.131 7.738-8.131 14.82 0 5.252.681 6.863 4.533 10.714 5.834 5.834 12.593 6.138 21.83.98 7.076-3.95 11.728-3.688 16.337.921 3.85 3.85 3.252 7.273-2.357 13.482-10.1 11.179-25.558 13.717-39.799 6.534-8.98-4.53-7.608-4.973-22.211 7.183-5.642 4.697-9 8.493-9 10.173 0 3.932-3.475 11.586-7.353 16.194-3.303 3.925-3.38 4.472-3.018 21.547l.37 17.52 27.113.666c27.113.667 27.113.667 31 5.022 3.888 4.354 3.888 4.354 3.888 29 0 20.545-.319 24.645-1.917 24.645-1.055 0-6.005-.955-11-2.123-28.322-6.62-58.71 8.014-73.773 35.53-2.58 4.71-5.58 8.733-6.667 8.937-1.24.233-3.447-2.496-5.92-7.32-4.823-9.402-20.226-25.074-29.49-30.003-33.804-17.985-74.727-4.4-91.803 30.473-1.932 3.945-4.315 7.173-5.295 7.173-.981 0-4.113-4.035-6.96-8.966m161.284-145.93c2.316-3.701-.947-9.104-5.498-9.104-6.622 0-9 4.872-4.698 9.625 2.685 2.967 8.188 2.686 10.196-.522m-168.812 13.51c-40.396-4.898-62.498-44.934-45.205-81.889 4.833-10.326 9.192-13.752 14.633-11.498 2.05.849 9.589 7.82 16.752 15.492 7.164 7.67 14.099 13.947 15.41 13.947 3.533 0 14.155-9.912 16.025-14.954 3.84-10.35 5.539-13.047 9.515-15.103 11.622-6.01 25.33 7.578 19.338 19.167-2.394 4.628-4.633 6.113-11.423 7.573-4.21.905-22.693 14.55-22.693 16.754 0 .497 7.2 7.756 16 16.13 17.26 16.425 18.818 19.387 13 24.717-4.788 4.387-13.804 8.375-20.662 9.14l-9.671 1.08c-1.834.206-6.792-.045-11.019-.557"/></svg>
