<svg
        width="38"
        height="38"
        viewBox="0 0 44 44"
        fill="none"
        xmlns="http://www.w3.org/2000/svg"
      >
        <style>
          svg {
            float: left;
            display: inline-block;
            margin-right: 1rem;
            top: 0.7rem;
            position: relative;
          }
        </style>
        <rect
          x="0.5"
          y="0.5"
          width="43"
          height="43"
          rx="21.5"
          stroke="#D3D3D1"
        />
        <path
          d="M28.792 30.296C29.1013 30.296 29.3467 30.3867 29.528 30.568C29.7093 30.7493 29.8 30.984 29.8 31.272V33H14.504V32.024C14.504 31.8213 14.5467 31.6133 14.632 31.4C14.7173 31.1867 14.8507 30.9893 15.032 30.808L22.376 23.432C22.984 22.8133 23.5387 22.2213 24.04 21.656C24.5413 21.08 24.968 20.504 25.32 19.928C25.672 19.352 25.944 18.7707 26.136 18.184C26.328 17.5867 26.424 16.952 26.424 16.28C26.424 15.608 26.3173 15.0213 26.104 14.52C25.8907 14.008 25.5973 13.5867 25.224 13.256C24.8613 12.9253 24.4293 12.68 23.928 12.52C23.4267 12.3493 22.888 12.264 22.312 12.264C21.7253 12.264 21.1867 12.3493 20.696 12.52C20.2053 12.6907 19.768 12.9307 19.384 13.24C19.0107 13.5387 18.696 13.896 18.44 14.312C18.184 14.728 18.0027 15.1867 17.896 15.688C17.768 16.0613 17.592 16.312 17.368 16.44C17.1547 16.5573 16.8507 16.5893 16.456 16.536L14.968 16.28C15.1173 15.2347 15.4053 14.312 15.832 13.512C16.2693 12.7013 16.8133 12.024 17.464 11.48C18.1253 10.936 18.8773 10.5253 19.72 10.248C20.5627 9.96 21.4747 9.816 22.456 9.816C23.4267 9.816 24.3333 9.96 25.176 10.248C26.0187 10.536 26.7493 10.9573 27.368 11.512C27.9867 12.056 28.472 12.7227 28.824 13.512C29.176 14.3013 29.352 15.1973 29.352 16.2C29.352 17.0533 29.224 17.848 28.968 18.584C28.712 19.3093 28.3653 20.0027 27.928 20.664C27.4907 21.3253 26.984 21.9707 26.408 22.6C25.8427 23.2293 25.24 23.864 24.6 24.504L18.552 30.68C18.9787 30.5627 19.4107 30.472 19.848 30.408C20.2853 30.3333 20.7067 30.296 21.112 30.296H28.792Z"
          fill="#334259"
        />
      </svg>