<svg width="400" height="400" viewBox="0 0 400 400" xmlns="http://www.w3.org/2000/svg">
  <path style="fill:#000" d="M128.259 370.626c-2.71-.022-5.968-.648-7.243-1.39-1.274-.743-3.074-2.675-4-4.293-1.07-1.871-1.925-10.7-2.35-24.242L114 319.4l-5.542-.943c-3.048-.519-7.848-2.129-10.666-3.578-2.82-1.45-6.71-4.34-8.645-6.425-1.936-2.083-4.786-6.314-6.334-9.402-1.547-3.087-2.822-6.987-2.833-8.667s-.468-3.756-1.015-4.616c-.665-1.046-7.533-1.707-20.759-2-19.765-.437-19.765-.437-23.652-4.791-2.692-3.015-3.887-5.76-3.887-8.926 0-2.907 1.17-5.933 3.213-8.312 3.214-3.741 3.214-3.741 24.334-4.408l21.12-.666v-44l-20-.693c-11-.382-21.073-1.204-22.383-1.829-1.31-.624-3.26-2.832-4.334-4.907s-1.95-5.293-1.95-7.15c0-1.859 1.75-5.339 3.89-7.734 3.889-4.354 3.889-4.354 24.333-5.02l20.443-.667v-41.334l-21.12-.666C37.095 142 37.095 142 33.88 138.259c-2.079-2.42-3.213-5.398-3.213-8.436 0-3.411 1.065-5.76 3.897-8.592 3.898-3.898 3.898-3.898 23.067-3.898 13.131 0 19.673-.504 20.769-1.6.88-.88 1.606-3.13 1.613-5s1.421-6.424 3.143-10.12c1.721-3.697 5.132-8.406 7.578-10.465 2.447-2.06 5.983-4.378 7.858-5.154s6.108-1.766 9.408-2.202l6-.792.667-21.333c.427-13.67 1.276-22.4 2.364-24.303.933-1.633 2.844-3.583 4.245-4.333s4.655-1.364 7.229-1.364c3.022 0 6.005 1.138 8.42 3.214 3.742 3.214 3.742 3.214 4.408 25L142 80.667h45.333l.366-21.576c.366-21.575.366-21.575 4.436-25 2.607-2.193 5.684-3.424 8.56-3.424 2.82 0 5.88 1.194 8.23 3.214 3.742 3.214 3.742 3.214 4.408 25L214 80.667l21.9.367c16.628.28 22.16-.042 22.98-1.333.593-.936 1.088-10.597 1.1-21.47.02-19.77.02-19.77 3.917-23.667 2.886-2.885 5.163-3.897 8.77-3.897s5.883 1.012 8.769 3.897c3.897 3.898 3.897 3.898 3.897 24.62 0 19.123.2 20.829 2.58 22.102 1.418.76 4.448 1.38 6.732 1.38 2.285 0 6.074.968 8.421 2.15s6.269 4.032 8.714 6.333 5.404 5.984 6.573 8.184 2.812 7 3.65 10.667l1.526 6.667 20.355.666c20.3.665 20.364.677 23.569 4.408 2.028 2.36 3.214 5.408 3.214 8.259s-1.186 5.899-3.214 8.259c-3.207 3.733-3.259 3.742-23.667 4.408l-20.453.666v41.334l19.334.766c10.633.422 20.405 1.245 21.716 1.829s3.26 2.759 4.333 4.833 1.95 5.342 1.95 7.26-.613 4.634-1.363 6.035c-.75 1.402-2.7 3.313-4.334 4.246-1.847 1.056-10.273 1.95-22.302 2.364l-19.334.667v44l20.453.666c20.408.666 20.46.675 23.667 4.408 2.044 2.379 3.214 5.405 3.214 8.312 0 3.166-1.196 5.91-3.888 8.926-3.887 4.354-3.887 4.354-23.494 5.021l-19.606.667-2.492 8.13c-1.606 5.238-4.408 10.306-7.883 14.253-3.754 4.265-7.619 6.958-12.73 8.87-4.038 1.51-8.754 2.747-10.481 2.747s-3.505.949-3.95 2.109-.81 11.106-.81 22.102c0 19.994 0 19.994-3.897 23.891-2.823 2.823-5.184 3.898-8.564 3.898-3.076 0-6.066-1.177-8.77-3.452-4.102-3.452-4.102-3.452-4.122-24.334-.012-11.484-.507-21.646-1.1-22.582-.82-1.291-6.352-1.612-22.98-1.333l-21.9.367-.667 22.453c-.666 22.453-.666 22.453-4.407 25.667-2.421 2.08-5.398 3.214-8.436 3.214-3.412 0-5.76-1.066-8.593-3.898C188 362.872 188 362.872 188 342.266c0-15.92-.42-20.954-1.845-22.137-1.262-1.048-8.532-1.415-23-1.164l-21.155.368-.667 22.453c-.666 22.453-.666 22.453-4.407 25.667-2.525 2.169-5.343 3.2-8.667 3.173m72.127-102.655c51.324.027 54.674-.117 59.484-2.571 3.104-1.584 5.95-4.399 7.28-7.202 1.906-4.016 2.183-11.181 2.181-56.4-.002-46.643-.234-52.262-2.333-56.465-1.334-2.67-4.328-5.664-6.998-6.998-4.22-2.108-10.017-2.33-60.667-2.328-52.44.003-56.26.162-60.106 2.507-2.26 1.378-5.135 4.67-6.391 7.318-2.06 4.34-2.246 10.027-1.893 57.824.326 44.344.717 53.528 2.39 56.176 1.1 1.741 4.4 4.278 7.334 5.638 4.914 2.277 9.605 2.474 59.72 2.5"/>
</svg>
