<?xml version="1.0" encoding="UTF-8" standalone="no"?>
<!-- Created with Inkscape (http://www.inkscape.org/) -->

<svg
   version="1.1"
   id="svg1"
   width="433.33334"
   height="433.33334"
   viewBox="0 0 433.33334 433.33334"
   sodipodi:docname="roboarm.svg"
   xmlns:inkscape="http://www.inkscape.org/namespaces/inkscape"
   xmlns:sodipodi="http://sodipodi.sourceforge.net/DTD/sodipodi-0.dtd"
   xmlns="http://www.w3.org/2000/svg"
   xmlns:svg="http://www.w3.org/2000/svg">
  <defs
     id="defs1" />
  <sodipodi:namedview
     id="namedview1"
     pagecolor="#ffffff"
     bordercolor="#000000"
     borderopacity="0.25"
     inkscape:showpageshadow="2"
     inkscape:pageopacity="0.0"
     inkscape:pagecheckerboard="0"
     inkscape:deskcolor="#d1d1d1">
    <inkscape:page
       x="0"
       y="0"
       width="433.33334"
       height="433.33334"
       id="page2"
       margin="0"
       bleed="0" />
  </sodipodi:namedview>
  <g
     inkscape:groupmode="layer"
     inkscape:label="Image"
     id="g1">
    <path
       style="fill:#000000"
       d="m 129.33932,395.34055 c -2.5142,-3.02943 -1.84979,-11.76719 1.38594,-18.22676 5.9684,-11.91487 14.54667,-18.24185 29.44492,-21.71737 4.53977,-1.05906 8.76516,-2.7065 9.38977,-3.66099 0.62461,-0.95448 7.77949,-14.16519 15.89975,-29.35712 16.17578,-30.26277 21.11671,-36.54961 33.20697,-42.25253 6.62221,-3.12367 8.88488,-3.45911 23.33334,-3.45911 14.1622,0 16.73206,0.36362 22.37338,3.16567 13.67026,6.79002 18.0071,12.34345 34.89832,44.68816 15.62924,29.92816 15.62924,29.92816 22.5121,30.83527 14.15611,1.86567 24.93114,9.20182 30.7932,20.96543 1.88265,3.77798 3.423,9.1084 3.423,11.84536 0,9.83442 8.3465,9.16678 -114.59865,9.16678 -96.33652,0 -110.61896,-0.25398 -112.06204,-1.99279 z m 123.69301,-59.64054 c 15.86878,-9.53842 8.57825,-34.34545 -10.09854,-34.36169 -14.58946,-0.0127 -23.47468,12.54479 -18.35732,25.94438 2.38613,6.24802 5.72899,9.1331 12.91636,11.14757 5.4328,1.52271 9.71594,0.77017 15.5395,-2.73026 z m -84.77765,-54.03334 c -5.83464,-10.81666 -13.37885,-24.81598 -16.76489,-31.10959 -3.38605,-6.29361 -6.15645,-12.08376 -6.15645,-12.86701 0,-0.78325 3.15,-2.15723 7,-3.05329 16.31401,-3.79697 35.14588,-17.13874 43,-30.4641 2.2,-3.73253 4.65883,-6.79833 5.46407,-6.81288 1.38381,-0.025 41.86926,59.60586 41.86926,61.66907 0,0.53412 -1.56339,0.97114 -3.47421,0.97114 -6.09017,0 -19.59844,4.08748 -27.85912,8.42992 -9.93156,5.22078 -20.3845,15.41463 -25.98846,25.3443 -2.34635,4.15751 -4.76462,7.55911 -5.37393,7.55911 -0.6093,0 -5.88163,-8.85 -11.71627,-19.66667 z m -53.20544,-61.59594 c -9.00381,-3.29222 -16.815405,-8.73407 -24.809163,-17.28298 -21.362913,-22.84653 -19.839713,-59.2326 3.421757,-81.73864 19.179836,-18.55695 46.859176,-22.365957 70.202846,-9.66074 8.04978,4.38124 19.98558,16.47747 23.97486,24.29709 15.43519,30.25548 3.07269,67.07197 -27.48637,81.85656 -8.28194,4.00683 -10.21968,4.39272 -23.6865,4.71703 -11.74408,0.28283 -16.05173,-0.15323 -21.61743,-2.18832 z m 30.66542,-26.17977 c 11.32315,-3.85818 20.95201,-17.12653 20.95201,-28.87138 0,-17.51498 -15.02585,-33.01958 -32,-33.01958 -11.17131,0 -21.29428,6.25576 -27.66799,17.09816 -3.00161,5.1061 -3.65814,7.80456 -3.62554,14.90184 0.10516,22.89402 20.53953,37.31965 42.34152,29.89096 z m 137.9708,-52.67049 c -4.20634,-0.61593 -10.87662,-2.70083 -14.82285,-4.63311 -7.65725,-3.74939 -19.90523,-14.87368 -23.03395,-20.92069 C 244.78523,113.65 243.29619,112 242.51966,112 c -0.77652,0 -9.07811,5.4 -18.44796,12 -9.36985,6.6 -17.66183,12 -18.42662,12 -0.76478,0 -3.32192,-3.42225 -5.68252,-7.60501 -2.36061,-4.18276 -7.54906,-11.0197 -11.52991,-15.1932 -7.2379,-7.58819 -7.2379,-7.58819 -3.50194,-10.22295 2.05478,-1.44912 13.03596,-7.899505 24.40263,-14.334183 31.33354,-17.737939 29.97768,-16.669788 35.07521,-27.632286 10.05371,-21.621052 32.29152,-33.268748 55.57321,-29.108079 20.05679,3.584349 37.59569,17.081276 32.33116,24.88021 -1.25011,1.851938 -14.92034,11.2155 -16.37393,11.2155 -0.60232,0 -4.13193,-1.887782 -7.84358,-4.19507 -19.96067,-12.408231 -43.04922,-0.200222 -43.23755,22.861737 -0.10092,12.35728 7.71168,22.540631 20.04334,26.125541 8.15045,2.3694 14.28029,1.58993 23.38782,-2.97401 9.22606,-4.62334 11.73253,-4.16382 18.86187,3.45801 3.40035,3.63525 6.18245,7.18922 6.18245,7.8977 0,4.40134 -14.82419,15.86403 -24,18.55782 -7.26709,2.13344 -17.27705,2.71447 -25.64788,1.48874 z"
       id="path1" />
  </g>
</svg>
